<?xml version="1.0" encoding="UTF-8"?><svg id="b" xmlns="http://www.w3.org/2000/svg" width="1428.95" height="217.51" viewBox="0 0 1428.95 217.51"><g id="c"><path d="m355.25,19.76c-8.73-3.92-19.13-5.87-31.2-5.87h-55.36c-1.66,0-3,1.34-3,3v128.82c0,1.66,1.34,3,3,3h25.4c1.66,0,3-1.34,3-3v-31.18c0-1.66,1.34-3,3-3h23.97c12.07,0,22.47-1.99,31.2-5.97,8.73-3.98,15.47-9.6,20.22-16.85,4.75-7.25,7.13-15.95,7.13-26.1s-2.38-18.68-7.13-26c-4.75-7.32-11.49-12.93-20.22-16.85Zm-11.36,60.19c-4.88,4.11-12.07,6.16-21.57,6.16h-22.23c-1.66,0-3-1.34-3-3v-40.8c0-1.66,1.34-3,3-3h22.23c9.5,0,16.69,2.02,21.57,6.07,4.88,4.04,7.32,9.79,7.32,17.24s-2.44,13.23-7.32,17.33Zm108.43-63.06v103.4c0,1.66,1.34,3,3,3h61.22c1.66,0,3,1.34,3,3v19.43c0,1.66-1.34,3-3,3h-92.61c-1.66,0-3-1.34-3-3V16.88c0-1.66,1.34-3,3-3h25.4c1.66,0,3,1.34,3,3Zm130.58,78.58v25.2c0,1.66,1.34,3,3,3h67.38c1.66,0,3,1.34,3,3v19.04c0,1.66-1.34,3-3,3h-98.39c-1.66,0-3-1.34-3-3V16.88c0-1.66,1.34-3,3-3h95.89c1.66,0,3,1.34,3,3v19.04c0,1.66-1.34,3-3,3h-64.88c-1.66,0-3,1.34-3,3v23.09c0,1.66,1.34,3,3,3h56.6c1.66,0,3,1.34,3,3v18.46c0,1.66-1.34,3-3,3h-56.6c-1.66,0-3,1.34-3,3ZM736.95,15.67l-57.23,128.82c-.88,1.98.57,4.21,2.74,4.21h25.36c1.21,0,2.3-.73,2.77-1.85l10.48-25.2c.46-1.12,1.56-1.85,2.77-1.85h58.45c1.21,0,2.3.73,2.77,1.85l10.48,25.2c.46,1.12,1.56,1.85,2.77,1.85h26.11c2.17,0,3.62-2.24,2.74-4.22l-57.78-128.82c-.48-1.08-1.55-1.77-2.74-1.77h-26.93c-1.18,0-2.26.7-2.74,1.78Zm-3.54,76.31l16.88-40.59c1.02-2.46,4.51-2.46,5.54,0l16.88,40.59c.82,1.97-.63,4.15-2.77,4.15h-33.76c-2.14,0-3.59-2.17-2.77-4.15Zm221.29-.18c2.89,4.69,4.33,10.5,4.33,17.43,0,7.58-2.09,14.51-6.26,20.8-4.17,6.29-10.5,11.36-18.97,15.21-8.47,3.85-19.07,5.78-31.78,5.78-10.79,0-21.16-1.45-31.1-4.33-8.87-2.58-16.19-5.84-21.94-9.79-1.2-.82-1.62-2.38-1.03-3.71l8.12-18c.76-1.68,2.83-2.26,4.39-1.27,5.03,3.22,10.86,5.93,17.5,8.12,7.96,2.63,15.99,3.95,24.07,3.95,6.16,0,11.14-.64,14.93-1.93,3.79-1.28,6.58-2.98,8.38-5.1,1.8-2.12,2.7-4.59,2.7-7.42,0-3.59-1.42-6.45-4.24-8.57-2.83-2.12-6.58-3.85-11.27-5.2-4.69-1.35-9.79-2.63-15.31-3.85-5.52-1.22-11.07-2.7-16.66-4.43-5.58-1.73-10.72-4.04-15.41-6.93-4.69-2.89-8.41-6.67-11.17-11.36-2.76-4.69-4.14-10.56-4.14-17.62,0-7.7,2.05-14.73,6.16-21.09,4.11-6.36,10.37-11.43,18.78-15.21,8.41-3.79,18.97-5.68,31.68-5.68,8.47,0,16.85,1.03,25.13,3.08,7.27,1.81,13.73,4.3,19.37,7.5,1.32.75,1.87,2.37,1.29,3.77l-7.53,18.02c-.68,1.62-2.59,2.31-4.15,1.49-5.14-2.69-10.41-4.77-15.82-6.23-6.42-1.73-12.58-2.6-18.49-2.6s-11.11.67-14.83,2.02c-3.73,1.35-6.45,3.18-8.19,5.49s-2.6,4.88-2.6,7.7c0,3.6,1.41,6.49,4.24,8.67,2.82,2.18,6.55,3.88,11.17,5.1,4.62,1.22,9.76,2.44,15.41,3.66,5.65,1.22,11.23,2.73,16.76,4.53,5.52,1.8,10.59,4.08,15.21,6.84,4.62,2.76,8.38,6.48,11.27,11.17Zm81.35-76.12l-57.23,128.82c-.88,1.98.57,4.21,2.74,4.21h25.36c1.21,0,2.3-.73,2.77-1.85l10.48-25.2c.46-1.12,1.56-1.85,2.77-1.85h58.45c1.21,0,2.3.73,2.77,1.85l10.48,25.2c.46,1.12,1.56,1.85,2.77,1.85h26.11c2.17,0,3.62-2.24,2.74-4.22l-57.78-128.82c-.48-1.08-1.55-1.77-2.74-1.77h-26.93c-1.18,0-2.26.7-2.74,1.78Zm-3.54,76.31l16.88-40.59c1.02-2.46,4.51-2.46,5.54,0l16.88,40.59c.82,1.97-.63,4.15-2.77,4.15h-33.76c-2.14,0-3.59-2.17-2.77-4.15Zm216.96-4.69V16.88c0-1.66,1.34-3,3-3h24.82c1.66,0,3,1.34,3,3v128.82c0,1.66-1.34,3-3,3h-21.39c-.9,0-1.75-.4-2.32-1.1l-60.81-74.2c-1.78-2.18-5.32-.92-5.32,1.9v70.4c0,1.66-1.34,3-3,3h-24.82c-1.66,0-3-1.34-3-3V16.88c0-1.66,1.34-3,3-3h21.39c.9,0,1.75.4,2.32,1.1l60.81,74.2c1.78,2.18,5.32.92,5.32-1.9Zm65.01-73.4h111.49c1.66,0,3,1.34,3,3v19.43c0,1.66-1.34,3-3,3h-37.14c-1.66,0-3,1.34-3,3v103.4c0,1.66-1.34,3-3,3h-25.2c-1.66,0-3-1.34-3-3V42.31c0-1.66-1.34-3-3-3h-37.14c-1.66,0-3-1.34-3-3v-19.43c0-1.66,1.34-3,3-3ZM76.62,173.47s-.03-.01-.05-.02c.02,0,.03.01.05.02Zm.63.16s-.09-.01-.13-.02c.04,0,.08.01.13.02Zm-1.1-.38s-.08-.04-.11-.06c.04.02.07.04.11.06Zm-.56-.39s.02.02.03.03c0,0-.02-.02-.03-.03Zm-.35-.35s-.06-.07-.08-.1c.03.03.06.07.08.1Zm2.55,1.16s-.01,0-.02,0c-.02,0-.04,0-.05,0,.02,0,.05,0,.07,0Zm-2.93-1.7s0-.01,0-.02c0,0,0,.01,0,.02Zm133.71-105.62c-5.7-13.12-13.48-24.61-23.34-34.47-9.86-9.86-21.35-17.64-34.47-23.34C137.64,2.85,123.57,0,108.55,0s-28.86,2.85-42.06,8.55c-13.21,5.7-24.74,13.48-34.6,23.34s-17.64,21.35-23.34,34.47S0,93.54,0,108.55s2.85,28.86,8.55,42.06c5.7,13.21,13.48,24.74,23.34,34.6,9.86,9.86,21.39,17.64,34.6,23.34,13.21,5.7,27.23,8.55,42.06,8.55s29.08-2.85,42.2-8.55c13.12-5.7,24.61-13.48,34.47-23.34,9.86-9.86,17.64-21.39,23.34-34.6,5.7-13.21,8.55-27.23,8.55-42.06s-2.85-29.08-8.55-42.2ZM53.33,41.52c7.87-6.69,16.87-11.67,27-14.93-3.26,5.97-6.11,12.17-8.55,18.59-2.44,6.42-4.48,13.07-6.11,19.95h-32.02c5.25-9.05,11.81-16.92,19.68-23.61Zm110.45,134.06c-7.87,6.69-16.87,11.67-27,14.93,3.26-5.97,6.11-12.17,8.55-18.59s4.48-13.07,6.11-19.95h32.02c-5.25,9.05-11.81,16.92-19.68,23.61Zm30.94-56.04c-.45,3.53-1.13,7.1-2.04,10.72h-26.15c-.5,5.89-3.82,11.01-9.1,13.92l-31.36,17.68c-1.56,4.36-3.32,8.58-5.3,12.64-3.44,7.06-7.51,13.84-12.21,20.35-3.99-5.52-7.52-11.24-10.59-17.15l-12.18,6.86c-2.29,1.29-4.86,2-7.47,2.09.66,1.29,1.32,2.58,2.02,3.85-10.13-3.26-19.13-8.23-27-14.93s-14.43-14.56-19.68-23.61h25.07l-3.01-21.71h-31.28c-.9-3.62-1.58-7.19-2.04-10.72s-.68-7.19-.68-10.99.23-7.46.68-10.99c.45-3.53,1.13-7.1,2.04-10.72h30.34c.59-5.78,3.89-10.84,9.02-13.74l26.17-14.69c1.81-5.5,3.93-10.77,6.39-15.81,3.44-7.06,7.51-13.84,12.21-20.35,4.45,6.15,8.32,12.55,11.63,19.19l15.46-8.68c1.13-.64,2.34-1.13,3.58-1.48-.79-1.58-1.61-3.15-2.45-4.7,4.16,1.34,8.12,2.98,11.9,4.9,2.02.66,3.88,1.7,5.48,3.05,3.38,2.07,6.59,4.4,9.63,6.98,7.87,6.69,14.43,14.56,19.68,23.61h-20.85l2.96,21.71h27.11c.9,3.62,1.58,7.19,2.04,10.72.45,3.53.68,7.19.68,10.99s-.23,7.46-.68,10.99Zm-115.85,53.93s.09-.03.14-.05c-.05.02-.09.03-.14.05Zm-.26.09c-.06.01-.11.02-.17.03.06-.01.11-.02.17-.03Zm-.58.09c.06,0,.12,0,.17-.01-.06,0-.12,0-.17.01Zm-3.39-2.18s-.03-.09-.05-.13c.01.05.03.09.05.13Zm74.99-44.33l.08-8.74c0-1.02-.55-1.96-1.46-2.43l-38.11-19.94c-2.33-1.22-2.1-4.63.37-5.52l11.26-4.08c.79-.29,1.67-.23,2.42.16l20.69,10.68c2.18,1.12,4.71-.67,4.38-3.1l-5.66-41.45c-.29-2.11-2.62-3.27-4.48-2.23l-65.09,36.53c-1.43.81-2.21,2.15-2.25,3.76l-.08,8.74c0,1.01.55,1.95,1.44,2.43l38.13,20.25c2.31,1.23,2.08,4.62-.39,5.51l-11.3,4.1c-.8.29-1.69.23-2.45-.17l-20.52-10.9c-2.18-1.16-4.75.64-4.41,3.09l5.74,41.41c.29,2.11,2.62,3.27,4.48,2.22l64.95-36.61c1.45-.79,2.25-2.13,2.25-3.74v.04Zm167.43,39.39l-22.1,50.4h-7.13l-22.17-50.4h7.77l18.15,41.43,18.28-41.43h7.2Zm33.41,0h-7.13l-22.82,50.4h7.41l5.54-12.6h26.8l5.54,12.6h7.56l-22.9-50.4Zm-14.47,32.04l10.87-24.73,10.87,24.73h-21.74Zm70.99,18.93c-3.84,0-7.38-.64-10.62-1.91-3.24-1.27-6.05-3.07-8.42-5.4-2.38-2.33-4.24-5.05-5.58-8.17-1.34-3.12-2.02-6.55-2.02-10.3s.67-7.17,2.02-10.3c1.34-3.12,3.22-5.84,5.62-8.17,2.4-2.33,5.22-4.13,8.46-5.4,3.24-1.27,6.78-1.91,10.62-1.91s7.48.66,10.76,1.98c3.29,1.32,6.08,3.28,8.39,5.87l-4.68,4.54c-1.92-2.02-4.08-3.52-6.48-4.5-2.4-.98-4.97-1.48-7.7-1.48s-5.46.48-7.88,1.44c-2.42.96-4.53,2.3-6.3,4.03-1.78,1.73-3.16,3.78-4.14,6.16-.98,2.38-1.48,4.96-1.48,7.74s.49,5.36,1.48,7.74c.98,2.38,2.36,4.43,4.14,6.16,1.77,1.73,3.88,3.07,6.3,4.03,2.42.96,5.05,1.44,7.88,1.44s5.3-.49,7.7-1.48c2.4-.98,4.56-2.51,6.48-4.57l4.68,4.54c-2.3,2.59-5.1,4.56-8.39,5.9-3.29,1.34-6.9,2.02-10.84,2.02Zm55.44-50.97h-7.13l-22.82,50.4h7.41l5.54-12.6h26.8l5.54,12.6h7.56l-22.9-50.4Zm-14.47,32.04l10.87-24.73,10.87,24.73h-21.74Zm58.46,18.36v-44.14h-17.28v-6.26h41.69v6.26h-17.28v44.14h-7.13Zm35.85,0v-50.4h7.2v50.4h-7.2Zm48.67.58c-3.84,0-7.4-.65-10.69-1.94-3.29-1.3-6.13-3.11-8.53-5.44-2.4-2.33-4.27-5.05-5.62-8.17s-2.02-6.53-2.02-10.22.67-7.1,2.02-10.22,3.22-5.84,5.62-8.17c2.4-2.33,5.23-4.14,8.5-5.44,3.26-1.3,6.84-1.94,10.73-1.94s7.39.64,10.66,1.91c3.26,1.27,6.1,3.07,8.5,5.4,2.4,2.33,4.26,5.06,5.58,8.21,1.32,3.14,1.98,6.56,1.98,10.26s-.66,7.18-1.98,10.3c-1.32,3.12-3.18,5.84-5.58,8.17-2.4,2.33-5.23,4.13-8.5,5.4-3.26,1.27-6.82,1.91-10.66,1.91Zm-.07-6.41c2.83,0,5.44-.48,7.81-1.44,2.38-.96,4.44-2.31,6.19-4.07s3.12-3.8,4.1-6.16c.98-2.35,1.48-4.92,1.48-7.7s-.49-5.34-1.48-7.67c-.98-2.33-2.35-4.38-4.1-6.16-1.75-1.77-3.82-3.14-6.19-4.1-2.38-.96-4.98-1.44-7.81-1.44s-5.36.48-7.74,1.44c-2.38.96-4.45,2.33-6.23,4.1s-3.16,3.83-4.14,6.16c-.98,2.33-1.48,4.88-1.48,7.67s.49,5.35,1.48,7.7c.98,2.35,2.36,4.4,4.14,6.16,1.77,1.75,3.85,3.11,6.23,4.07,2.38.96,4.96,1.44,7.74,1.44Zm84.74-44.57v50.4h-5.9l-30.24-37.55v37.55h-7.2v-50.4h5.9l30.24,37.55v-37.55h7.2Z" fill="#336657" stroke-width="0"/></g></svg>